# xmcd CD database file
#
# Track frame offsets:
#	150
#	15696
#	36351
#	61979
#	86146
#	97018
#	116574
#	138732
#	160043
#	180617
#
# Disc length: 2606 seconds
#
# Revision: 0
# Processed by: cddbd v1.5.1PL2 Copyright (c) Steve Scherf et al.
# Submitted via: CDex 1.51
#
DISCID=860a2c0a
DTITLE=Blues Penetrators - Genuine Houserockin' Music
DYEAR=2005
DGENRE=Blues
TTITLE0=Wild Women
TTITLE1=Blues Before Sunrise
TTITLE2=Thrill Is Gone
TTITLE3=Tell Me Baby
TTITLE4=Don't Start Crying
TTITLE5=Can't Be Satisfied
TTITLE6=On The Road again
TTITLE7=Sky Is Crying
TTITLE8=Stop Trying To Come Back
TTITLE9=Flip Flop and Fly
EXTD=YEAR: 2005
EXTT0=
EXTT1=
EXTT2=
EXTT3=
EXTT4=
EXTT5=
EXTT6=
EXTT7=
EXTT8=
EXTT9=
PLAYORDER=
